<mxfile host="app.diagrams.net" modified="2024-01-15T04:56:06.880Z" agent="Mozilla/5.0 (Macintosh; Intel Mac OS X 10_15_7) AppleWebKit/537.36 (KHTML, like Gecko) Chrome/120.0.0.0 Safari/537.36" version="22.1.17" etag="6iK8BJzFPzykyNRN-X8t" type="github">
  <diagram name="Page-1" id="FCE43NpWtn3dVfeGmBDr">
    <mxGraphModel>
      <root>
        <mxCell id="0" />
        <mxCell id="1" parent="0" />
      </root>
    </mxGraphModel>
  </diagram>
</mxfile>
